<svg xmlns="http://www.w3.org/2000/svg" xmlns:xlink="http://www.w3.org/1999/xlink" fill="none" version="1.1" width="12" height="12" viewBox="0 0 12 12"><defs><clipPath id="master_svg0_38_44327"><rect x="0" y="0" width="12" height="12" rx="0"/></clipPath></defs><g clip-path="url(#master_svg0_38_44327)"><g><path d="M6.00001,0.5C8.481760000000001,0.5,10.50001,2.49714,10.50001,4.95194C10.50419,6.05514,10.07922,7.11861,9.31126,7.92674L6.73951,11.1428C6.36675,11.6166,5.63719,11.6195,5.26051,11.1487L2.63701,7.90327C1.902193,7.08827,1.49776176,6.03848,1.50000938416,4.95194C1.50000938416,2.49714,3.51826,0.5,6.00001,0.5ZM8.290510000000001,4.79792C8.290510000000001,3.56135,7.26751,2.55435,6.01051,2.55435C5.40376,2.55435,4.83226,2.78978,4.4032599999999995,3.2159C3.97413,3.6399,3.7346,4.2131,3.73726,4.80965C3.74176,6.04622,4.76476,7.05396,6.01651,7.05396C6.62211,7.05705,7.20271,6.81807,7.62376,6.3924C8.05351,5.96701,8.290510000000001,5.40006,8.290510000000001,4.79865L8.290510000000001,4.79792ZM7.32301,4.79792C7.32301,5.14556,7.18801,5.46974,6.94276,5.71324C6.69955,5.95786,6.3654,6.09572,6.01651,6.09536C5.292009999999999,6.09536,4.70401,5.51595,4.70401,4.80452C4.70401,4.457599999999999,4.83901,4.13269,5.08351,3.88993C5.338509999999999,3.64349,5.66851,3.50781,6.01651,3.50781C6.36676,3.50781,6.69526,3.64129,6.94276,3.88626C7.19026,4.13049,7.32676,4.45467,7.32376,4.79865L7.32301,4.79792Z" fill="#3478F6" fill-opacity="1"/></g></g></svg>