<?xml version="1.0" encoding="UTF-8"?>
<svg width="151px" height="48px" viewBox="0 0 151 48" version="1.1" xmlns="http://www.w3.org/2000/svg" xmlns:xlink="http://www.w3.org/1999/xlink">
    <title>顶部logo</title>
    <defs>
        <rect id="path-1" x="0" y="0" width="151" height="48"></rect>
    </defs>
    <g id="登录注册" stroke="none" stroke-width="1" fill="none" fill-rule="evenodd">
        <g id="#切图" transform="translate(-200.000000, -636.000000)">
            <g id="顶部logo" transform="translate(200.000000, 636.000000)">
                <mask id="mask-2" fill="white">
                    <use xlink:href="#path-1"></use>
                </mask>
                <g id="矩形"></g>
                <g id="编组" mask="url(#mask-2)">
                    <g transform="translate(0.000000, 2.000000)" id="Logo">
                        <path d="M41.9421834,8.62458472 L46.1552734,11.0324836 L46.1552734,34.0851096 L41.9421834,36.4930084 L41.9421834,26.914358 L25.089266,36.5448505 L16.6630859,31.7296043 L41.9421834,17.2838656 L41.9421834,8.62458472 Z M25.1949137,7.74750831 L33.6210938,12.555693 L8.34199629,26.9802471 L8.34199629,36.5448505 L4.12890625,34.1404828 L4.12890625,11.1216634 L8.34199629,8.71729565 L8.34199629,17.3638777 L25.1949137,7.74750831 Z" id="形状结合" fill="#FF8A00"></path>
                        <path d="M71.3575157,9.90362051 L62.2797237,9.90362051 L62.2797237,8.84572833 L58.4811913,8.33222591 L58.4811913,9.90362051 L56.1650538,9.90362051 L56.1650538,11.8252557 L58.4811913,11.8252557 L58.4811913,13.921184 L62.2797237,13.921184 L62.2797237,11.8252557 L71.3575157,11.8252557 L71.3575157,13.921184 L75.2483155,13.921184 L75.2483155,11.8252557 L77.4716298,11.8252557 L77.4716298,9.90362051 L75.2483155,9.90362051 L75.2483155,8.87496101 L71.3575157,8.33222591 L71.3575157,9.90362051 Z M64.4102145,13.1346593 C64.7186994,13.8329343 64.8732197,14.5620967 64.8732197,15.317734 L64.8732197,15.317734 L56.5357914,15.317734 L56.5357914,17.4136622 L67.9302768,17.4136622 C59.9013333,20.5575545 55.8876953,24.2557647 55.8876953,28.5049834 L55.8876953,28.5049834 L59.9635861,28.5049834 C59.9635861,28.3875011 59.9936008,28.2126566 60.0564095,27.9804498 L60.0564095,27.9804498 L60.0564095,27.4570193 C61.908986,28.1552943 64.6564466,28.5049834 68.3004586,28.5049834 L68.3004586,28.5049834 L77.5644531,28.5049834 L77.5644531,26.4090552 L68.3004586,26.4090552 C63.9149713,26.4090552 61.6310718,25.7405644 61.4459809,24.4002735 L61.4459809,24.4002735 C63.9149713,21.140002 69.0719486,18.8113154 76.9158012,17.4136622 L76.9158012,17.4136622 L76.9158012,15.317734 L68.8562872,15.317734 C68.8562872,14.5620967 68.7017668,13.8329343 68.393282,13.1346593 L68.393282,13.1346593 L64.4102145,13.1346593 Z" id="Fill-5" fill="#FF8A00"></path>
                        <path d="M104.284254,8.62458472 L104.284254,10.7207059 L105.876858,10.7207059 L105.876858,17.2706028 L104.107422,17.2706028 L104.107422,19.3661734 L105.876858,19.3661734 C105.817728,24.3738493 105.346362,26.8763107 104.461086,26.8763107 L104.461086,26.8763107 L107.197799,28.7973422 C108.808812,27.7776373 109.160803,25.9551626 109.458684,21.5283662 L109.458684,21.5283662 C109.540685,20.3120983 110.567649,19.366724 111.803243,19.366724 L111.803243,19.366724 L117.486413,19.3661734 C118.501663,19.3661734 119.32502,20.1794045 119.32502,21.1814903 L119.32502,21.1814903 L119.32502,28.6233537 L123.041283,28.6233537 L123.041283,19.3661734 L124.899414,19.3661734 L124.899414,17.2706028 L123.041283,17.2706028 L123.041283,10.7207059 L124.811277,10.7207059 L124.811277,8.62458472 L104.284254,8.62458472 Z M109.593121,15.3088272 L109.593121,10.7207059 L119.32502,10.7207059 L119.32502,15.3936191 C119.32502,16.4303924 118.473772,17.2706028 117.423936,17.2706028 L117.423936,17.2706028 L111.580111,17.2706028 C110.482859,17.2706028 109.593121,16.3924013 109.593121,15.3088272 L109.593121,15.3088272 Z" id="Fill-7" fill="#FF8A00"></path>
                        <path d="M130.650391,12.8637874 L130.650391,28.5049834 L127.258789,28.5049834 L127.258789,12.8637874 L130.650391,12.8637874 Z M143.663976,8.77076412 L143.907784,8.77351881 C145.980966,8.82126819 147.018555,9.48981624 147.018555,10.7821121 L147.018555,10.7821121 L147.018555,26.3224451 L147.013918,26.4754837 C146.930459,27.8278254 145.720306,28.5049834 143.383962,28.5049834 L143.383962,28.5049834 L140.01541,28.5049834 L140.01541,26.3224451 L141.329966,26.3224451 L141.483214,26.3168978 C142.545728,26.239691 143.383962,25.3661866 143.383962,24.3000881 L143.383962,24.3000881 L143.383962,13.2723525 L143.378582,13.1085903 C143.292952,11.8093858 142.195785,10.7821121 140.856011,10.7821121 L140.856011,10.7821121 L131.682617,10.7821121 L131.682617,8.77406683 L143.383962,8.77406683 C143.479535,8.77186502 143.572314,8.77076412 143.663976,8.77076412 L143.663976,8.77076412 Z M130.50293,8.47840532 L130.50293,11.8405316 L127.111328,11.8405316 L127.111328,8.47840532 L130.50293,8.47840532 Z" id="形状结合" fill="#FF8A00"></path>
                        <path d="M90.308322,11.8405316 L90.308322,12.9811371 L95.5093044,12.9811371 L95.5093044,11.8405316 L98.1095169,11.8405316 L98.1095169,12.9811371 L101.453125,12.9811371 L101.453125,14.9105831 L98.1095169,14.9105831 L98.1095169,28.9435216 L95.5093044,28.9435216 L95.5093044,14.9105831 L90.308322,14.9105831 L90.308322,17.3668459 L91.8931922,18.6226753 L91.8931922,26.6035906 L90.308322,26.6035906 L90.308322,28.9435216 L87.800616,28.9435216 L87.800616,14.9105831 L84.6425781,14.9105831 L84.6425781,12.9811371 L87.800616,12.9811371 L87.800616,11.8405316 L90.308322,11.8405316 Z M93.2563173,8.18604651 L93.3547026,8.33835798 C93.5364272,8.64656945 93.6278164,8.97629284 93.6278164,9.32717931 L93.6278164,9.32717931 L101.158203,9.32717931 L101.158203,11.3441038 L83.9599154,11.3441038 L83.9599154,20.1147619 L83.9580996,20.4727897 C83.9012053,26.0228381 82.5072945,28.7973422 79.7763672,28.7973422 L79.7763672,28.7973422 L79.7763672,26.5167384 L79.8090232,26.5162862 C80.2826089,26.4461493 80.5199232,23.5817991 80.5199232,17.9216819 L80.5199232,9.32717931 L89.8163251,9.32717931 L89.8087142,9.15350128 C89.7782804,8.80967886 89.656633,8.48707766 89.444826,8.18604651 L89.444826,8.18604651 L93.2563173,8.18604651 Z M98.6513672,15.641196 L101.158203,17.2630302 L101.158203,28.6511628 L98.6513672,28.6511628 L98.6513672,15.641196 Z M92.3105469,15.641196 L94.8173828,17.2630302 L94.8173828,28.6511628 L92.3105469,28.6511628 L92.3105469,15.641196 Z M87.1494141,15.641196 L87.1494141,28.6511628 L84.6425781,28.6511628 L84.6425781,17.2630302 L87.1494141,15.641196 Z" id="形状结合" fill="#FF8A00"></path>
                        <path d="M57.0452637,38.2916944 L57.0452637,37.9847176 L60.9750977,37.9847176 L60.9750977,38.2916944 L61.505957,38.2916944 L61.505957,33.5627907 L58.9106445,33.5627907 C59.0138672,33.1973422 59.1023438,32.8099668 59.1613281,32.4152824 L62.3096191,32.4152824 L62.3096191,31.8963455 L55.673877,31.8963455 L55.673877,32.4152824 L58.6230957,32.4152824 C58.5788574,32.8172757 58.4977539,33.1973422 58.3871582,33.5627907 L56.5070312,33.5627907 L56.5070312,38.2916944 L57.0452637,38.2916944 Z M60.9750977,35.5069767 L57.0452637,35.5069767 L57.0452637,34.0671096 L60.9750977,34.0671096 L60.9750977,35.5069767 Z M60.9750977,37.4730897 L57.0452637,37.4730897 L57.0452637,35.9966777 L60.9750977,35.9966777 L60.9750977,37.4730897 Z M72.661377,33.8843854 L72.661377,32.3129568 L69.9186035,32.3129568 C69.8153809,32.027907 69.7047852,31.772093 69.5868164,31.538206 L68.9969727,31.6405316 C69.1223145,31.8451827 69.2329102,32.0644518 69.3361328,32.3129568 L66.534375,32.3129568 L66.534375,33.8770764 L67.0799805,33.8770764 L67.0799805,32.8245847 L72.1157715,32.8245847 L72.1157715,33.8843854 L72.661377,33.8843854 Z M72.3295898,38.2916944 L72.6834961,37.8312292 C71.9019531,37.392691 71.1277832,37.0126246 70.3683594,36.6910299 C70.7591309,36.2378738 71.1056641,35.6312292 71.407959,34.8564784 L72.8604492,34.8564784 L72.8604492,34.3448505 L69.048584,34.3448505 C69.2255371,34.0232558 69.4098633,33.6797342 69.6015625,33.3142857 L69.055957,33.1534884 C68.8568848,33.5481728 68.6430664,33.9428571 68.421875,34.3448505 L66.3574219,34.3448505 L66.3574219,34.8564784 L68.1343262,34.8564784 C67.8983887,35.2584718 67.6477051,35.6677741 67.3822754,36.0770764 C68.0679688,36.2963455 68.7536621,36.5521595 69.4467285,36.8445183 C68.6651855,37.4365449 67.640332,37.7362126 66.3869141,37.7435216 L66.696582,38.2332226 C68.0679688,38.1893688 69.1591797,37.8093023 69.9849609,37.0784053 C70.7665039,37.4292359 71.5480469,37.8385382 72.3295898,38.2916944 Z M69.8522461,36.4717608 C69.2697754,36.2305648 68.7020508,36.0259136 68.1416992,35.8651163 C68.3333984,35.5727575 68.5398438,35.2365449 68.7610352,34.8564784 L70.8254883,34.8564784 C70.5748047,35.4996678 70.2503906,36.0405316 69.8522461,36.4717608 Z M79.2160156,38.3209302 L79.2160156,37.9627907 L82.3495605,37.9627907 L82.3495605,38.3209302 L82.8583008,38.3209302 L82.8583008,35.8797342 L80.9855469,35.8797342 L80.9855469,34.9953488 L83.359668,34.9953488 L83.359668,34.5202658 L80.9855469,34.5202658 L80.9855469,33.6870432 L83.05,33.6870432 L83.05,31.8890365 L77.6234375,31.8890365 L77.6234375,34.3009967 C77.6160645,35.7847176 77.3506348,36.9980066 76.8271484,37.9408638 L77.2400391,38.3063123 C77.7414063,37.3561462 78.0363281,36.2524917 78.1248047,34.9953488 L80.4768066,34.9953488 L80.4768066,35.8797342 L78.7072754,35.8797342 L78.7072754,38.3209302 L79.2160156,38.3209302 Z M82.5265137,33.2046512 L78.1469238,33.2046512 L78.1469238,32.3787375 L82.5265137,32.3787375 L82.5265137,33.2046512 Z M80.4768066,34.5202658 L78.1469238,34.5202658 L78.1469238,33.6870432 L80.4768066,33.6870432 L80.4768066,34.5202658 Z M82.3495605,37.4803987 L79.2160156,37.4803987 L79.2160156,36.3621262 L82.3495605,36.3621262 L82.3495605,37.4803987 Z M93.5418457,35.0172757 L93.9547363,34.7322259 C93.6819336,34.2498339 93.2911621,33.6943522 92.7897949,33.0584718 L92.3842773,33.3069767 C92.5686035,33.5408638 92.7455566,33.7820598 92.9077637,34.0159468 C92.2294434,34.1255814 91.54375,34.2059801 90.8580566,34.2644518 C91.1087402,33.972093 91.3962891,33.5116279 91.7207031,32.8757475 L93.9768555,32.8757475 L93.9768555,32.3714286 L92.3179199,32.3714286 C92.2146973,32.0644518 92.1041016,31.779402 91.9935059,31.530897 L91.4552734,31.6186047 C91.5732422,31.8451827 91.6838379,32.0936877 91.7870605,32.3714286 L89.9069336,32.3714286 L89.9069336,32.8757475 L91.1677246,32.8757475 C90.7695801,33.6358804 90.4525391,34.1036545 90.2018555,34.2863787 C90.1723633,34.2936877 90.1428711,34.3083056 90.0986328,34.3229236 L90.2166016,34.7906977 C91.2930664,34.710299 92.2884277,34.6006645 93.2026855,34.454485 C93.3280273,34.6445183 93.438623,34.8272425 93.5418457,35.0172757 Z M87.7392578,36.4790698 C88.4470703,36.3621262 89.191748,36.1501661 89.965918,35.8285714 L89.965918,35.3388704 C89.4424316,35.5654485 88.9263184,35.7408638 88.4102051,35.8724252 C88.8378418,35.3461794 89.3760742,34.476412 90.0249023,33.2631229 L89.5456543,33.0803987 C89.4055664,33.3581395 89.2728516,33.6139535 89.1401367,33.8624585 C88.8157227,33.9209302 88.4913086,33.979402 88.1668945,34.0232558 C88.550293,33.4677741 88.9263184,32.7222591 89.2949707,31.786711 L88.7862305,31.5820598 C88.4913086,32.4445183 88.1521484,33.2046512 87.7540039,33.8697674 C87.6802734,33.972093 87.606543,34.0378738 87.5180664,34.0744186 L87.6581543,34.5568106 C88.0636719,34.4983389 88.4691895,34.4252492 88.867334,34.3521595 C88.4618164,35.0538206 88.1152832,35.5435216 87.8351074,35.8358804 C87.76875,35.8943522 87.6876465,35.9528239 87.5917969,35.9966777 L87.7392578,36.4790698 Z M93.438623,38.1674419 C93.7630371,38.1528239 93.9694824,38.0651163 94.065332,37.9189369 C94.1611816,37.7581395 94.212793,37.3269103 94.212793,36.6398671 L93.7556641,36.4790698 C93.7556641,36.910299 93.7335449,37.2245847 93.7040527,37.4292359 C93.6745605,37.5900332 93.5787109,37.6777409 93.4165039,37.6923588 L92.9372559,37.6923588 C92.8192871,37.6777409 92.7676758,37.5973422 92.7676758,37.4438538 L92.7676758,35.0245847 L92.2589355,35.0245847 L92.2589355,37.5315615 C92.2589355,37.9554817 92.480127,38.1674419 92.9225098,38.1674419 L93.438623,38.1674419 Z M89.9143066,38.2843854 C90.4156738,37.9627907 90.7695801,37.5754153 90.9833984,37.1222591 C91.1750977,36.6910299 91.2930664,36.0112957 91.3299316,35.0903654 L90.8138184,35.0903654 C90.7843262,35.9162791 90.6811035,36.5156146 90.5041504,36.8956811 C90.3198242,37.2684385 90.0101562,37.5900332 89.5751465,37.8677741 L89.9143066,38.2843854 Z M87.6655273,37.9554817 C88.5208008,37.7508306 89.2875977,37.4730897 89.965918,37.1368771 L89.965918,36.6325581 C89.2875977,36.9687708 88.4986816,37.2318937 87.5991699,37.4292359 L87.6655273,37.9554817 Z M104.763623,35.1488372 L104.763623,34.6225914 L98.1352539,34.6225914 L98.1352539,35.1488372 L104.763623,35.1488372 Z M115.196484,34.9149502 L115.543018,34.5129568 C115.093262,34.2936877 114.687744,34.0378738 114.319092,33.7601329 C114.665625,33.5116279 114.96792,33.2192691 115.218604,32.8976744 L114.849951,32.5687708 C114.599268,32.8903654 114.296973,33.1827243 113.935693,33.4458472 C113.736621,33.2704319 113.552295,33.0877076 113.390088,32.8903654 C113.736621,32.6491694 114.038916,32.3714286 114.296973,32.0571429 L113.920947,31.7282392 C113.692383,32.020598 113.41958,32.2837209 113.095166,32.517608 C112.896094,32.2398671 112.726514,31.9475083 112.593799,31.6405316 L112.158789,31.8817276 C112.438965,32.4956811 112.837109,33.0657807 113.353223,33.5774086 L111.082324,33.5774086 C111.450977,33.1900332 111.738525,32.751495 111.944971,32.269103 L111.944971,31.8744186 L109.497119,31.8744186 L109.497119,32.3568106 L111.340381,32.3568106 C111.133936,32.7368771 110.861133,33.0950166 110.521973,33.4166113 C110.241797,33.1461794 109.91001,32.8757475 109.511865,32.5980066 L109.157959,32.9342193 C109.54873,33.2046512 109.880518,33.4677741 110.15332,33.723588 C109.74043,34.0232558 109.261182,34.2863787 108.715576,34.5056478 L109.032617,34.9149502 C109.755176,34.6152824 110.359766,34.2498339 110.846387,33.8112957 L110.846387,34.0598007 L113.537549,34.0598007 L113.537549,33.7528239 C114.002051,34.1840532 114.555029,34.5714286 115.196484,34.9149502 Z M114.134766,36.4498339 L114.134766,34.6737542 L110.035352,34.6737542 L110.035352,36.4498339 L114.134766,36.4498339 Z M113.603906,35.9820598 L110.566211,35.9820598 L110.566211,35.1342193 L113.603906,35.1342193 L113.603906,35.9820598 Z M115.218604,38.0870432 L115.218604,37.5827243 L113.404834,37.5827243 C113.596533,37.3342193 113.773486,37.0564784 113.935693,36.7421927 L113.434326,36.5740864 C113.264746,36.9249169 113.065674,37.2611296 112.837109,37.5827243 L111.377246,37.5827243 C111.170801,37.2026578 110.942236,36.8810631 110.691553,36.6106312 L110.190186,36.7933555 C110.440869,37.0418605 110.647314,37.3049834 110.824268,37.5827243 L108.907275,37.5827243 L108.907275,38.0870432 L115.218604,38.0870432 Z M122.326221,38.3063123 C122.709619,38.3063123 122.908691,38.0870432 122.908691,37.648505 L122.908691,36.1428571 C123.572266,36.90299 124.471777,37.5461794 125.607227,38.0724252 L125.872656,37.6046512 C125.091113,37.2684385 124.412793,36.8737542 123.837695,36.427907 C124.368555,36.1501661 124.833057,35.7481728 125.245947,35.2219269 L124.84043,34.8857143 C124.457031,35.4265781 123.999902,35.8431894 123.476416,36.1355482 C123.269971,35.9528239 123.085645,35.7627907 122.908691,35.5581395 L122.908691,34.7249169 L125.850537,34.7249169 L125.850537,34.2498339 L124.523389,34.2498339 L124.523389,31.8744186 L120.269141,31.8744186 L120.269141,32.3495017 L123.985156,32.3495017 L123.985156,33.0803987 L120.519824,33.0803987 L120.519824,33.5408638 L123.985156,33.5408638 L123.985156,34.2498339 L119.531836,34.2498339 L119.531836,34.7249169 L122.377832,34.7249169 L122.377832,35.6385382 C121.559424,36.3840532 120.586182,37.0199336 119.450732,37.5534884 L119.664551,38.0431894 C120.711523,37.4877076 121.618408,36.8737542 122.377832,36.186711 L122.377832,37.5242525 C122.377832,37.7362126 122.296729,37.8458472 122.149268,37.8458472 C121.898584,37.8458472 121.640527,37.8312292 121.367725,37.8093023 L121.47832,38.3063123 L122.326221,38.3063123 Z M121.117041,36.2744186 L121.456201,35.930897 C121.153906,35.6239203 120.777881,35.3096346 120.328125,35.0026578 L119.974219,35.3388704 C120.46084,35.6677741 120.836865,35.9820598 121.117041,36.2744186 Z M133.547998,38.2916944 L133.547998,35.7043189 L136.570947,35.7043189 L136.570947,35.2 L133.547998,35.2 L133.547998,32.4372093 L136.290771,32.4372093 L136.290771,31.9255814 L130.33335,31.9255814 L130.33335,32.4372093 L133.002393,32.4372093 L133.002393,35.2 L130.038428,35.2 L130.038428,35.7043189 L133.002393,35.7043189 L133.002393,38.2916944 L133.547998,38.2916944 Z M135.022607,34.7906977 C135.383887,34.2352159 135.678809,33.6724252 135.9,33.0950166 L135.413379,32.8684385 C135.199561,33.4239203 134.912012,33.979402 134.550732,34.5495017 L135.022607,34.7906977 Z M131.535156,34.8199336 L132.02915,34.5787375 C131.778467,33.972093 131.513037,33.4166113 131.232861,32.9049834 L130.738867,33.1461794 C131.019043,33.6358804 131.284473,34.1913621 131.535156,34.8199336 Z M146.686768,35.0611296 L147.202881,34.8126246 C146.657275,33.9282392 146.067432,33.1169435 145.43335,32.3860465 L144.954102,32.6126246 C145.249023,32.9488372 145.536572,33.3215947 145.816748,33.7162791 C144.548584,33.8332226 143.206689,33.9282392 141.791064,33.986711 C142.454639,33.4458472 143.125586,32.7003322 143.78916,31.7647841 L143.243555,31.5820598 C142.285059,32.9780731 141.481396,33.7893688 140.832568,34.0086379 L140.935791,34.5056478 C142.852783,34.4325581 144.585449,34.3302326 146.141162,34.1913621 C146.318115,34.469103 146.502441,34.7541528 146.686768,35.0611296 Z M141.99751,38.3063123 L141.99751,37.9408638 L145.84624,37.9408638 L145.84624,38.3063123 L146.384473,38.3063123 L146.384473,35.2584718 L141.459277,35.2584718 L141.459277,38.3063123 L141.99751,38.3063123 Z M145.84624,37.4365449 L141.99751,37.4365449 L141.99751,35.7627907 L145.84624,35.7627907 L145.84624,37.4365449 Z" id="百安居统一登录平台" fill="#999999" fill-rule="nonzero"></path>
                    </g>
                </g>
            </g>
        </g>
    </g>
</svg>